<?xml version="1.0" encoding="UTF-8"?>
<svg width="842px" height="595px" viewBox="0 0 842 595" version="1.1" xmlns="http://www.w3.org/2000/svg" xmlns:xlink="http://www.w3.org/1999/xlink">
    <!-- Generator: Sketch 49 (51002) - http://www.bohemiancoding.com/sketch -->
    <title>tyersclub_figurativemark</title>
    <desc>Created with Sketch.</desc>
    <defs></defs>
    <g id="tyersclub_figurativemark" stroke="none" stroke-width="1" fill="none" fill-rule="evenodd">
        <g id="Page-1-Copy-4" transform="translate(108.000000, 68.000000)" fill="#FFF">
            <path d="M288.619623,238.846031 L289.157559,240.653329 C291.185956,240.039399 293.210926,239.418572 295.239323,238.797745 C295.044021,238.152774 294.852146,237.504355 294.660271,236.862833 C292.645579,237.5216 290.630888,238.187265 288.619623,238.846031 Z M294.160024,184.427076 C288.999947,189.610983 288.999947,189.610983 292.590758,192.325378 C293.060167,189.948989 293.522724,187.634683 294.160024,184.427076 Z M414.181493,144.970056 C408.120287,148.001763 408.120287,148.001763 409.199586,153.361571 C411.231409,149.943572 412.708164,147.456814 414.181493,144.970056 Z M319.672595,297.369345 C319.079838,298.021214 318.48708,298.673082 317.894322,299.324951 C321.145924,302.63258 324.3941,305.936761 327.645702,309.24439 C327.851283,308.961569 328.056864,308.675299 328.262444,308.389028 C325.398019,304.715801 322.533594,301.042573 319.672595,297.369345 Z M235.216596,229.21976 C235.096674,228.267825 234.976752,227.31589 234.85683,226.363955 L228.439284,226.363955 C228.658571,227.829797 228.877857,229.288741 229.097143,230.751134 C231.139245,230.244125 233.177921,229.730218 235.216596,229.21976 Z M315.060734,229.913017 C328.23846,225.19473 328.396072,224.936052 321.889441,219.120971 C319.720564,222.545868 317.603083,225.894886 315.060734,229.913017 Z M309.301047,173.179756 C308.900164,172.531336 308.502708,171.886366 308.101825,171.237946 C301.701411,171.80014 297.637765,175.245731 295.585384,181.433309 C301.704838,182.623228 301.704838,182.623228 301.46842,178.070495 C304.603526,176.11144 306.954,174.645598 309.301047,173.179756 Z M240.472611,278.292704 C247.126575,275.733516 243.748198,270.935901 244.04629,267.293715 C244.101111,266.638397 241.264097,265.738198 239.763357,264.951816 C239.150042,266.241757 237.882294,267.621374 238.046758,268.804394 C238.468199,271.829203 239.523513,274.767785 240.472611,278.292704 Z M338.041236,312.976252 C337.588958,313.645366 337.133254,314.321377 336.680976,314.990491 C341.258574,319.339731 343.454862,327.024192 352.637469,325.023749 C347.772058,321.009066 342.906647,316.990934 338.041236,312.976252 Z M282.010202,151.071408 C284.418923,142.931674 286.659753,135.367928 288.900583,127.800734 C284.388086,133.019132 281.1776,138.706599 277.953408,144.38027 C275.674888,148.394953 277.189333,150.378151 282.010202,151.071408 Z M219.068228,253.414777 C219.859714,253.863152 220.6512,254.311528 221.442686,254.759903 C227.16811,251.538499 234.486785,252.221409 239.588614,246.823661 C235.970393,245.60615 232.612574,245.630293 229.254755,245.595803 C226.880297,245.57166 223.560168,244.474865 222.360947,245.633743 C220.503867,247.427243 220.092706,250.741771 219.068228,253.414777 Z M381.75113,244.036837 C376.395751,244.785279 371.441255,245.237103 366.613534,246.282162 C364.927771,246.651209 363.139219,248.234319 362.231237,249.762244 C361.792665,250.503787 363.289978,252.404208 363.800504,253.542392 C366.26062,251.234984 367.891561,249.700161 369.519075,248.168787 C370.56411,249.662221 371.646836,251.124614 372.640476,252.645641 C374.254285,255.108256 375.65566,256.153315 378.96551,254.414999 C384.457943,251.528152 382.717359,247.823883 381.75113,244.036837 Z M421.561842,138.720395 C421.537858,139.465388 421.513873,140.203483 421.489889,140.945026 C423.806099,141.314074 426.523191,142.65575 428.373418,141.886614 C442.263824,136.102574 455.982913,129.9012 470.472929,123.513577 C469.414188,122.778932 468.581586,121.799404 468.14644,121.954611 C452.594257,127.479974 437.079762,133.108807 421.561842,138.720395 Z M394.853476,156.948573 C392.321407,157.086534 389.515229,156.569178 387.298384,157.483174 C379.04089,160.887377 371.177426,165.095206 363.546954,169.82384 C356.303659,174.317939 348.628644,178.098087 339.541975,183.061256 C346.192512,184.164949 350.780389,184.927187 353.720194,185.41695 C363.848473,178.894815 373.394272,173.762644 381.644913,167.01977 C385.91414,163.525892 393.469232,164.022554 394.623911,156.70714 C397.478057,156.331195 400.332203,155.955249 403.186349,155.579304 C403.258303,154.823964 403.330256,154.068624 403.405635,153.309835 C401.997407,152.340655 400.589179,151.368026 399.180951,150.395396 C397.738459,152.578639 396.295968,154.76533 394.853476,156.948573 Z M252.009118,218.120749 C257.282264,219.493467 257.282264,219.493467 261.493243,213.595608 C257.295969,215.623644 254.65083,216.89634 252.009118,218.172485 C253.139812,216.39278 254.267079,214.619973 255.356657,212.902351 C253.79767,210.294877 252.413426,207.98402 251.029183,205.673163 C254.568598,204.352181 258.039486,202.751826 261.674839,201.796442 C265.15258,200.875548 267.629828,196.860866 265.913229,193.832608 C264.371373,191.107867 262.610232,188.50729 260.598967,185.306581 C265.029232,183.213014 268.942119,181.367777 274.352319,178.818936 C267.39341,175.942437 268.215733,171.434541 271.436499,169.627244 C275.805089,167.168079 276.959768,163.194784 278.635251,159.5457 C280.403246,155.710367 279.35821,152.154407 273.691034,151.299045 C270.929399,160.138935 264.19663,166.809379 262.706169,176.790901 C261.637149,183.964904 255.743834,190.335282 252.471674,197.281648 C251.269027,199.840836 251.412933,203.038096 250.940098,205.945637 C248.723252,211.077809 246.246004,216.116857 244.382072,221.376643 C243.169145,224.794642 242.850495,228.53685 242.130962,232.134199 C241.798607,238.956401 248.123641,240.570552 253.146664,243.591911 C256.278344,240.801637 259.876008,231.640987 257.868169,230.019938 C253.893608,226.81233 253.790817,222.156126 252.009118,218.120749 Z M382.648832,182.381795 C375.69335,184.361544 369.923384,187.955444 365.962528,194.063694 C371.146589,191.783878 375.922915,188.93842 380.507366,185.806692 C381.507859,185.123782 381.829936,183.426854 382.487794,182.21969 C386.849532,180.743501 391.211271,179.270761 395.576435,177.794571 C395.209816,176.977149 394.85005,176.156277 394.483431,175.338855 L382.648832,182.381795 Z M299.906006,242.726202 C304.767991,242.519259 304.767991,242.519259 306.186498,238.325226 C300.68036,240.387752 300.68036,240.387752 300.265773,243.215965 C292.402309,243.77471 301.57121,248.620611 299.906006,250.383071 L299.906006,242.726202 Z M345.880715,353.861174 C345.980079,355.258035 345.531228,357.330908 346.271318,357.941388 C350.944854,361.804313 356.111784,365.084351 360.644839,369.099033 C363.12894,371.299521 364.328161,374.948605 366.754014,377.252564 C370.382514,380.705053 374.905291,383.212506 378.489248,386.706383 C388.912192,396.874154 399.061029,407.331644 409.333214,417.689111 C405.331242,421.779673 400.931814,421.00019 397.327298,418.544473 C380.904822,407.362685 364.513184,396.111916 348.532707,384.3093 C342.19054,379.622055 336.937952,373.441375 329.622704,366.443272 C329.622704,371.358155 328.865481,374.676131 329.763184,377.44916 C332.387765,385.540608 336.191009,393.276805 338.428413,401.457928 C339.254162,404.475838 337.013332,408.345661 336.173877,411.825743 L333.552722,412.039583 C328.09798,401.575196 322.646664,391.107359 317.229611,380.711952 C314.988781,383.674677 315.513012,387.713503 317.507145,394.673666 C320.926638,406.596998 323.955528,418.647944 326.614372,430.764422 C327.213983,433.499511 325.620732,436.724364 324.311868,439.580169 C314.029404,418.62725 310.911429,395.353127 298.275066,375.734987 C300.392547,390.269242 304.713169,404.537921 300.707771,420.148277 C298.487499,415.605891 295.742996,411.239406 294.156598,406.48318 C290.771368,396.332654 289.10959,385.426789 284.504582,375.931582 C282.010202,370.782165 277.953408,363.963413 269.089452,363.083907 C269.514318,368.978317 269.706194,373.993221 270.285246,378.95639 C270.840314,383.69882 272.080652,388.37227 272.474681,393.118149 C272.772773,396.694804 273.605375,401.05439 268.04099,402.058061 C260.650362,381.177572 254.500071,359.828013 241.562189,340.192628 C241.918529,374.10704 238.766291,405.917537 225.019791,435.717244 C224.248863,435.627569 223.481362,435.530996 222.710434,435.437872 C223.015379,431.985383 222.412342,428.101763 223.789733,425.159732 C228.148045,415.836977 227.699194,405.862352 228.685981,396.09812 C230.022256,382.922786 231.019323,369.712962 232.112327,356.516935 C232.581737,350.870856 230.111341,345.00059 226.369771,342.865634 C226.318376,339.382103 230.347759,337.447192 229.151964,332.570249 C228.295378,329.07982 228.343347,327.369096 224.827916,326.006725 C222.614496,325.144465 220.952719,322.705994 219.205282,320.826267 C217.91355,319.436304 216.88222,317.808357 214.613979,314.800794 C213.78823,318.83962 213.229735,320.833165 213.007023,322.86465 C212.801442,324.716784 212.96248,326.613757 212.96248,328.979798 C210.995758,329.397132 209.029035,329.814466 206.695694,330.311128 C205.94875,327.286319 205.318303,324.73403 204.804351,322.664606 C200.32269,321.612648 196.080874,320.619325 190.180707,319.239709 C193.953113,313.635018 197.76321,307.975144 201.573307,302.31182 C200.956564,301.891037 200.332969,301.470254 199.716227,301.05292 C190.256086,304.101871 186.185587,312.007071 182.560513,320.702102 C181.282486,320.702102 179.093051,320.001947 177.972636,320.812471 C167.864916,328.086497 156.492874,324.333941 146.213837,323.133675 C138.819782,322.271415 131.881432,316.004509 125.114399,311.569043 C119.550013,307.91651 114.376231,303.601761 109.308665,299.252521 C100.502957,291.688776 100.550925,285.414972 109.11679,276.94068 C111.628302,279.903406 114.396789,282.683332 116.596503,285.863347 C123.072297,295.220593 132.364547,300.0458 142.897134,302.929198 C147.978405,304.319161 151.552083,303.308592 152.412096,297.045135 C152.823258,294.058266 154.666632,291.267993 156.064581,287.898281 C141.488906,281.734846 127.591647,274.298715 111.131481,278.013332 C110.487328,278.158191 109.658153,277.454587 108.914636,277.147623 C104.45696,273.305392 105.889172,267.966278 107.215168,263.961942 C108.212235,260.95093 112.608236,260.464615 116.760968,260.5198 C135.023391,260.785376 152.206515,265.207045 167.923164,274.088324 C173.210016,277.075193 177.777335,279.899957 183.146419,276.97517 C187.960434,274.3539 191.986391,270.273685 196.200796,266.962607 C192.609986,257.408766 192.609986,257.408766 199.592879,255.139297 C198.893904,252.097244 198.215488,249.137967 197.526792,246.137302 C202.399056,243.433255 204.461716,246.168344 206.723104,250.058861 C206.91498,248.931025 206.69912,247.351365 207.363831,246.737435 C213.212603,241.360382 212.743194,234.693387 212.393707,227.505587 C211.728996,213.864634 212.280637,200.271966 207.977147,186.906936 C204.077965,174.793907 202.100964,162.06005 198.40051,149.867693 C194.943327,138.472065 190.17728,127.486872 186.29523,116.211959 C184.12978,109.914012 182.59135,103.398775 180.768535,96.9801114 C181.398982,96.6110641 182.02943,96.2385677 182.656451,95.8660714 C184.297671,97.980333 186.572764,99.8531618 187.47732,102.250245 C194.484197,120.819877 201.39171,139.434347 207.973721,158.159186 C210.594875,165.61946 212.32518,173.390147 214.874381,182.488715 C217.498962,172.603766 216.635523,164.008758 215.868021,155.424097 C214.857249,144.080204 213.925283,132.725964 212.688372,121.406214 C211.800949,113.22854 210.450969,105.099152 209.364817,96.9387229 C209.1935,95.6453328 209.340833,94.3140033 209.340833,92.8447122 C214.120585,91.88243 215.580208,94.4105765 216.104439,97.9354955 C219.33891,119.592019 223.957624,141.07609 223.207254,163.205132 C222.963984,170.3274 223.854834,177.484158 224.245437,184.62712 C224.923854,191.5252 225.581712,198.419832 226.027137,203.058791 C228.038402,201.851627 230.789758,200.202985 232.444683,199.209662 C229.443204,193.918834 226.804917,189.272977 224.170057,184.630569 C229.443204,187.196655 234.089329,185.906714 236.213663,180.822829 C237.66986,177.3324 238.468199,173.55915 239.485823,169.89627 C242.895038,157.590094 246.246004,145.270123 249.67235,132.970846 C252.01597,124.565535 254.990038,116.294736 256.627832,107.758362 C257.532387,103.046973 260.287169,102.646884 265.416409,100.853383 C260.794268,129.335557 251.611661,155.275788 245.423681,181.881684 C246.002733,182.150709 246.578359,182.419734 247.157412,182.68531 C249.610675,178.077393 252.098203,173.48672 254.506924,168.854659 C261.62687,155.182664 268.726259,141.503771 275.805089,127.811081 C280.841818,118.064094 285.895678,108.327454 290.822763,98.5252814 C294.307357,91.5927106 297.538401,84.5290764 301.002437,77.5827095 C302.790989,74.0026058 305.004409,71.3330487 309.510054,70.2121107 C312.621176,69.4395257 316.263381,66.5319848 317.623641,63.6106478 C327.248246,42.9267539 342.008944,25.588429 353.891511,6.39107143 C355.467631,3.84223074 358.39373,2.14530298 360.754482,0 C366.171535,4.26301364 362.546461,7.86381158 360.627707,10.8644765 C354.984516,19.6940193 348.371668,27.9268782 343.101948,36.9599144 C331.116591,57.5023976 319.001032,78.0241866 308.314259,99.2564779 C301.351924,113.090578 296.572172,128.069759 291.28532,142.707486 C288.873173,149.37793 287.595146,156.458809 286.152654,163.522443 C301.821334,138.858357 319.323108,115.722196 340.066206,95.2866327 C360.271367,75.3822219 381.987547,57.3368437 406.290619,42.8129356 C406.866245,43.5510302 407.441871,44.2856757 408.017497,45.0237703 C398.074241,53.242833 387.945963,61.2515043 378.239125,69.7499393 C366.421658,80.0970598 355.166112,91.0994979 343.280118,101.36729 C332.027999,111.090135 323.482692,123.03761 314.844874,134.905757 C312.86102,137.630499 312.610897,141.631385 311.565861,145.049384 C309.181124,146.370367 305.511508,146.760108 306.854636,150.754097 C307.533052,151.054163 308.204616,151.35423 308.87618,151.654296 C309.698503,149.381379 310.524252,147.105012 311.343149,144.832095 C313.796412,143.552501 317.044588,142.890285 318.562459,140.893291 C327.405858,129.259678 340.216965,122.42713 351.030513,113.214743 C357.208214,107.951508 364.115728,103.536737 370.89304,99.0288412 C372.301268,98.0907023 374.555803,98.4459534 376.419735,98.2079697 L377.08102,100.187719 C368.302722,107.337579 359.109836,114.039064 350.842064,121.74422 C338.671683,133.084664 327.083782,145.059731 315.509585,157.017554 C314.433713,158.135043 315.259462,161.115013 315.197788,163.229275 C312.987795,164.322621 310.784654,165.409068 307.258944,167.154283 C315.53357,169.744512 316.188002,169.244401 315.530143,163.084415 C319.353945,161.239179 323.201732,159.442229 326.980991,157.507317 C327.902678,157.038248 328.745559,156.248418 329.379433,155.417199 C333.617823,149.815958 337.770554,144.149185 341.995239,138.537596 C344.393681,135.350683 345.630592,130.132285 351.647255,133.101909 C352.452446,133.498549 354.203309,132.512123 355.248344,131.780927 C374.096673,118.619389 392.479019,104.723207 411.858431,92.4066841 C426.077766,83.3667498 441.520307,76.2237877 458.062705,72.0883885 C464.189011,70.5570147 470.308465,68.95666 476.496445,67.7081075 C478.877756,67.2252419 481.437236,67.6287796 483.91791,67.6287796 C484.161181,68.3358328 484.404451,69.0463351 484.647722,69.7499393 C483.3183,71.1123101 482.225295,72.9471995 480.621766,73.761173 C473.710826,77.2516016 466.61829,79.4348441 458.682873,80.5419859 C448.842408,81.9078059 438.902578,85.5017057 430.004358,90.0889291 C416.665594,96.9697643 404.193695,105.550976 391.941082,114.84269 C393.568596,115.063429 395.192684,115.291066 398.509387,115.749788 C375.066329,132.136178 354.936547,149.940123 336.633007,169.737614 C337.225765,170.599874 337.815097,171.465583 338.404428,172.327843 C350.622778,165.79881 362.765747,159.121468 375.076608,152.778683 C387.565639,146.353121 400.016979,139.786149 412.858924,134.146968 C426.002386,128.373275 439.334298,122.716849 453.077371,118.733208 C466.097486,114.959958 478.58309,108.172247 492.43238,107.775607 C492.802425,108.717195 493.165618,109.658783 493.535663,110.596922 C490.403983,112.418015 487.268877,114.235659 484.137196,116.053303 C484.318793,116.480984 484.500389,116.908665 484.685412,117.339795 C499.744202,112.769817 514.802992,108.203288 530.320912,103.495348 C531.064429,108.461966 528.097214,109.56221 524.664015,110.872845 C510.225394,116.401657 495.570913,121.499338 481.577716,128.014575 C461.437655,137.402862 439.937335,143.873261 421.126696,156.127701 C418.783076,157.652177 416.881454,159.859563 414.770825,161.746188 C415.346451,162.660183 415.922077,163.574179 416.501129,164.484725 C423.076287,161.691003 429.713119,159.014548 436.209471,156.048373 C439.008795,154.768779 441.396958,152.540699 444.230546,151.405965 C445.861487,150.754097 448.016658,151.430108 449.931986,151.509436 C449.099384,153.527125 448.835555,156.427768 447.331389,157.403846 C441.503175,161.190892 435.298063,164.391601 429.199167,167.761314 C415.911798,175.097422 402.264662,181.840296 389.398734,189.862763 C374.535245,199.123436 360.219972,209.311901 345.952668,219.503814 C341.1318,222.945956 337.181223,227.622855 332.826337,231.734111 C333.186103,232.3101 333.539017,232.88609 333.898783,233.46208 C336.749503,232.075566 339.507712,230.423475 342.471501,229.350824 C355.566995,224.615292 367.466694,217.330919 380.058515,211.626206 C390.755567,206.787203 402.453111,203.669271 414.017029,201.4067 C432.670055,197.747269 451.621174,196.429736 470.836122,199.188968 C470.764169,200.623768 470.681936,202.34139 470.568867,204.621206 C449.59963,206.359522 428.335728,206.076701 407.84618,212.640224 C387.408027,219.193401 367.987498,227.402116 351.170993,241.094806 C362.704073,238.801194 374.398191,237.91824 384.982174,233.993232 C397.358135,229.406009 410.110994,230.958077 422.579467,228.96798 C437.285343,226.615735 452.792985,225.718985 467.464598,227.757367 C482.502829,229.847486 496.900335,226.49157 511.585653,227.008926 C513.014439,227.060661 514.432946,227.374524 515.858306,227.564221 C515.913128,228.171252 515.964523,228.778283 516.015918,229.385314 C494.087305,233.620736 472.155265,237.859606 450.06904,242.126069 C447.605497,236.548971 443.377386,234.493343 434.441476,235.728099 C419.036625,237.852708 403.67289,240.235995 388.23035,242.519259 C393.496643,250.738322 393.739914,250.693484 403.309698,249.855368 C406.866245,249.548403 410.505024,250.303743 414.112966,250.465848 C415.298482,250.517583 416.627904,250.517583 417.666087,250.038167 C423.103698,247.534164 428.325449,244.495559 433.900114,242.3744 C437.881527,240.86372 442.294661,240.508469 447.091545,239.515145 C447.393064,241.867391 447.63976,243.829895 447.924147,246.044178 C452.659357,245.375064 457.421978,244.716298 462.170893,244.029939 C467.68731,243.229762 473.17289,242.057088 478.713291,241.656999 C496.304151,240.391201 513.905289,239.094362 531.526986,238.428698 C543.519196,237.976873 555.54567,238.639089 567.561865,238.649436 C572.375881,238.649436 576.460085,239.753129 579.2971,244.60248 C571.666628,258.50556 557.498688,252.18347 544.711565,255.629061 C550.502089,256.360257 554.617131,257.025922 558.759583,257.377724 C580.393531,259.202267 601.112644,265.238087 621.866021,271.153191 C626.070147,272.353457 627.190562,275.326529 626.974702,279.127372 C610.339793,274.933339 593.725442,270.590997 577.032285,266.579763 C560.363113,262.575428 543.481507,262.930679 526.555358,264.993205 C537.666998,266.310738 548.751227,267.890399 559.890277,268.873375 C570.385174,269.801167 580.780708,270.701366 590.374476,274.895399 C590.186027,276.095665 589.994152,277.295931 589.79885,278.496197 C571.957867,276.802718 554.116884,275.105791 535.282261,273.315739 C549.515302,283.069624 562.631354,291.768104 575.363655,301.001184 C578.491909,303.267204 580.520305,307.178415 582.788546,310.513637 C594.407285,327.610529 601.695123,346.483677 600.97559,367.236552 C600.588413,378.497668 597.429322,389.544943 592.372036,400.343888 C587.653957,410.421984 581.644147,418.737619 573.732714,425.873683 C562.439478,436.058699 549.354263,443.284438 534.792294,447.730251 C533.130516,448.233811 531.653761,449.316809 530.02282,449.958331 C517.633154,454.828376 504.846031,458.363642 491.524398,458.618871 C474.656497,458.939632 457.692659,459.494927 440.924123,458.077372 C426.985748,456.904698 413.270085,453.041773 399.468764,450.306684 C398.738952,450.161824 397.998862,449.56514 397.467778,448.985702 C396.008155,447.406041 394.658174,445.719461 393.267078,444.077717 C395.223522,442.929187 397.056617,441.135686 399.156967,440.739047 C408.110008,439.042119 417.182972,437.983264 426.136014,436.265642 C440.136063,433.57539 478.809229,434.679083 489.496001,434.11344 C504.85631,433.296018 519.092777,428.232827 533.144221,423.073063 C547.863803,417.668417 561.874131,409.632153 569.066031,394.790934 C575.785095,380.922343 579.71854,366.005244 573.146809,350.522503 C572.944655,350.046535 572.745927,349.553323 572.6774,349.046314 C570.333779,331.825256 559.640154,320.295115 546.459001,310.661946 C538.417367,304.784781 529.567116,300.421746 519.815736,297.952233 C510.379579,295.562048 501.142151,292.226826 491.616909,290.38159 C485.822959,289.260652 479.641831,290.174647 473.635446,290.174647 C473.505245,290.981723 473.37847,291.795696 473.248269,292.602771 C475.903687,293.699566 478.627632,294.65495 481.197392,295.927646 C486.162167,298.386812 486.103919,299.625017 480.42989,303.753518 C484.894419,305.954006 489.067708,308.013083 493.343788,310.116997 C488.272796,312.993497 476.047594,312.486488 468.992748,309.192655 C460.310387,305.153829 451.823329,300.614892 442.90455,297.217587 C439.183539,295.803481 434.434623,296.034566 430.394962,296.8106 C423.586813,298.117787 416.970539,300.449338 409.703259,302.511864 C414.448748,309.447884 424.604437,305.636694 427.10567,315.018084 C420.067955,314.580055 413.917665,314.197212 407.767374,313.810919 C407.705699,314.486931 407.644025,315.162943 407.582351,315.838955 C415.898092,317.908379 424.237818,319.905373 432.529575,322.088616 C435.777751,322.940529 438.892299,324.299451 442.123344,325.254835 C445.61479,326.289547 449.222732,328.058904 452.686768,327.862309 C467.354954,327.017294 481.670227,328.976349 496.009485,331.711438 C503.578283,333.153137 511.37322,333.366977 519.013971,334.47067 C524.554372,335.267398 525.733035,336.512502 528.230841,342.472443 C512.353155,344.331476 496.87635,344.89022 481.310461,340.965213 C467.879185,337.578255 454.11898,335.526076 440.697984,332.111527 C427.999946,328.879776 415.5349,324.682294 403.001327,320.802124 C399.598965,319.746718 394.730128,321.381563 393.554891,315.914834 C391.677254,316.597744 389.799616,317.277205 388.984146,317.573822 C377.848522,312.91072 367.004137,310.427411 354.809772,308.63391 C360.435832,319.926068 369.848004,325.192752 379.164239,329.22468 C383.210753,330.980241 385.550947,337.833484 391.622432,334.663816 C394.702717,339.254489 397.783002,343.841712 401.743858,349.74302 C405.536823,352.309106 411.077224,355.971986 416.521687,359.772829 C421.510447,363.25291 426.399842,366.891648 432.546707,371.33746 C429.106656,372.023819 427.085112,372.427357 425.015599,372.841242 C429.068966,380.463621 452.227638,388.606804 481.971746,392.697366 C465.967284,376.024706 442.325498,370.878738 429.072392,352.598825 C429.462996,352.022835 429.853599,351.446846 430.244203,350.874305 C439.92363,356.720428 449.702421,362.404446 459.255073,368.450614 C470.250217,375.407328 480.847904,383.019359 492.021218,389.655313 C496.722165,392.445586 499.30563,395.691133 499.788744,402.323637 C494.227785,402.81685 488.612004,403.454922 482.982518,403.782581 C473.309944,404.348224 464.418576,401.050941 455.386728,398.153748 C447.053855,395.480742 438.559944,393.176783 429.994079,391.431568 C424.333756,390.279589 420.681271,382.933133 413.729215,386.306295 C410.97786,378.487321 404.313617,383.226302 399.619523,381.68803 C394.438888,379.991102 389.665989,377.055969 384.663524,374.783052 C381.829936,373.49656 378.917542,371.623731 375.981163,371.499565 C371.718789,371.320215 368.789263,370.202726 365.290964,367.329676 C359.243464,362.369956 353.209669,356.992902 345.692266,354.061218 C341.724557,350.049984 337.753423,346.038751 333.785714,342.024068 C333.240925,342.665589 332.696136,343.307111 332.151347,343.948632 C337.023611,346.873418 338.890969,353.626639 345.880715,353.861174 Z" id="Fill-1"></path>
            <path d="M83.2358776,242.543036 C91.1839066,236.440785 99.9920972,239.509129 101.72258,249.40979 C104.231949,263.759721 101.766604,277.737732 95.8707715,291.01667 C94.0420814,295.135344 89.900437,297.063821 86.2599891,296.998391 C81.9896591,296.926073 77.6008029,294.835742 76.1412373,289.659849 C75.8601608,288.65773 75.4605582,287.690048 75.1185254,286.722366 C62.3786511,290.46912 60.2587251,289.119187 58.4943778,275.819586 C57.0381987,278.378261 55.3618994,280.379056 54.7116985,282.679453 C53.6483491,286.439982 51.5250367,290.038657 47.9353858,288.829915 C44.6132654,287.717597 40.1262018,284.12581 39.7773961,281.177996 C38.9883502,274.541971 40.2345686,267.602899 41.0507062,260.836013 C41.6399508,255.983828 42.8760098,251.210849 44.0849772,245.043168 C36.4451163,250.27416 28.5783625,247.474426 23.0144035,239.030454 C19.6448727,233.923435 16.4209598,228.69933 13.4205534,223.358138 C10.0747278,217.39708 7.05738919,211.246617 3.37969022,204.19046 C6.50878216,203.591254 8.97751379,203.126354 11.4462454,202.644235 C13.2444573,202.292977 15.0392828,201.931387 16.7426738,200.729533 C11.3107869,197.547547 2.84124258,205.01695 0,194.654832 C4.9984196,189.334303 11.5207476,189.323972 17.8060232,189.003707 C19.3570233,188.924502 21.7173881,190.126356 22.4793423,191.465959 C29.5096398,203.842645 36.3502954,216.336418 43.0385601,228.909396 C44.1797981,231.054826 44.3423484,233.737474 45.2905581,237.504891 C51.6334035,230.183568 56.0358056,234.33668 60.2350199,238.593103 C66.5609331,229.794429 69.9440097,230.386746 83.2358776,242.543036" id="Fill-3"></path>
        </g>
    </g>
</svg>
